Coordinates
version=1
nRows=8
nColumns=27
inDegrees=yes

Units are S.I. units (second, meters, Newtons, ...)
If the header above contains a line with 'inDegrees', this indicates whether rotational values are in degrees (yes) or radians (no).

endheader
time	r_x	r_y	r_z	t_x	t_y	t_z	sternoclavicular_r2	sternoclavicular_r3	unrotscap_r3	unrotscap_r2	acromioclavicular_r2	acromioclavicular_r3	acromioclavicular_r1	unrothum_r1	unrothum_r3	unrothum_r2	elv_angle	shoulder_elv	shoulder1_r2	shoulder_rot	elbow_flexion	pro_sup	deviation	flexion	wrist_hand_r1	wrist_hand_r3
      0.00000000	     57.45336224	     80.02004092	    -51.33329431	      0.46496564	      1.23927045	     -0.20724159	     -6.57421973	      2.78452919	     -2.78452919	      6.57421973	     -1.33114576	     10.75785183	      4.83558036	     -4.83558036	    -10.75785183	      1.33114576	    -43.57782569	     27.16613633	     43.57782569	     19.02758420	    105.37605147	     18.68108027	      0.27911100	     -0.48327378	     18.04983253	    -13.84477408
      0.01000000	     57.25527346	     80.05343877	    -51.13233608	      0.46492689	      1.23926913	     -0.20720644	     -6.53444085	      2.76768074	     -2.76768074	      6.53444085	     -1.32309135	     10.69275890	      4.80632153	     -4.80632153	    -10.69275890	      1.32309135	    -43.36987487	     27.00176118	     43.36987487	     18.99464520	    105.23057678	     18.21177949	      0.27595168	     -0.47841680	     17.88640134	    -13.70563185
      0.02000000	     57.15399453	     80.08324814	    -51.02635335	      0.46489627	      1.23927072	     -0.20716974	     -6.49622685	      2.75149509	     -2.75149509	      6.49622685	     -1.31535379	     10.63022667	      4.77821373	     -4.77821373	    -10.63022667	      1.31535379	    -43.12109617	     26.84385242	     43.12109617	     18.97742540	    105.10055301	     17.73738945	      0.27816572	     -0.47528005	     18.00103647	    -13.61577041
      0.03000000	     57.09850953	     80.10341491	    -50.96688650	      0.46485373	      1.23928126	     -0.20712520	     -6.46021770	      2.73624331	     -2.73624331	      6.46021770	     -1.30806267	     10.57130241	      4.75172768	     -4.75172768	    -10.57130241	      1.30806267	    -42.82360675	     26.69505464	     42.82360675	     18.96148000	    104.96982916	     17.28222529	      0.28133588	     -0.47139613	     18.16437386	    -13.50450438
      0.04000000	     57.36067631	     80.08087062	    -51.22707169	      0.46484686	      1.23929517	     -0.20705944	     -6.43226833	      2.72440528	     -2.72440528	      6.43226833	     -1.30240349	     10.52556692	      4.73116989	     -4.73116989	    -10.52556692	      1.30240349	    -42.30587405	     26.57956164	     42.30587405	     18.93890400	    104.93970925	     17.54333374	      0.31085153	     -0.45646788	     19.63976055	    -13.07684146
      0.05000000	     57.13264828	     80.14574465	    -50.97890708	      0.46484136	      1.23931478	     -0.20700416	     -6.38349195	      2.70374590	     -2.70374590	      6.38349195	     -1.29252727	     10.44575073	      4.69529306	     -4.69529306	    -10.44575073	      1.29252727	    -42.20502088	     26.37800677	     42.20502088	     18.87929926	    104.73202593	     16.94463046	      0.29968527	     -0.45227571	     19.09118932	    -12.95674457
      0.06000000	     57.05315486	     80.17314459	    -50.88938750	      0.46480264	      1.23930929	     -0.20695984	     -6.33999197	      2.68532137	     -2.68532137	      6.33999197	     -1.28371941	     10.37456871	      4.66329723	     -4.66329723	    -10.37456871	      1.28371941	    -41.88713727	     26.19825522	     41.88713727	     18.88305595	    104.56805750	     16.32400365	      0.30223842	     -0.44917072	     19.21765018	    -12.86779328
      0.07000000	     57.21981559	     80.12361113	    -51.05906768	      0.46481851	      1.23934398	     -0.20687815	     -6.30773785	      2.67166004	     -2.67166004	      6.30773785	     -1.27718861	     10.32178905	      4.63957314	     -4.63957314	    -10.32178905	      1.27718861	    -41.19622549	     26.06497402	     41.19622549	     18.94156434	    104.48107032	     16.27921922	      0.33048054	     -0.43639263	     20.57573683	    -12.50172805
